<svg viewBox="0 0 256 256" xmlns="http://www.w3.org/2000/svg">
<style>.b{fill:#000}.l{fill:#fff;stroke:#fff}@media(prefers-color-scheme:dark){.b{fill:#fff}.l{fill:#000;stroke:#000}}</style>
<rect class="b" x="2.5" y="2.5" width="251" height="251" rx="56" stroke="#7f7f7f" stroke-width="5"/>
<g transform="translate(21.7 -34.4) scale(.857)">
<path class="l" stroke-width="2.67678" stroke-miterlimit="10" d="M167.383 196.865C168.806 195.442 169.519 193.573 169.519 191.708C169.519 189.319 168.112 187.446 167.383 186.551C163.296 181.545 153.058 173.728 147.648 168.318C142.238 162.908 135.414 153.516 129.413 148.581C128.541 147.866 126.719 146.447 124.258 146.447C123.091 146.445 121.925 146.723 120.865 147.281C120.059 147.707 119.476 148.209 119.102 148.583C113.456 154.91 107.338 161.427 100.725 168.045C94.0599 174.71 87.5003 180.87 81.1312 186.554C79.7081 187.977 78.9954 189.841 78.9954 191.71C78.9954 194.66 80.7883 196.52 81.1312 196.863C87.4734 202.277 94.1047 208.339 100.866 215.1C107.627 221.862 113.689 228.493 119.102 234.833C119.913 235.788 122.02 237.056 124.554 236.964C126.815 236.881 128.528 235.617 129.413 234.835C134.991 228.468 141.12 221.873 147.834 215.163C154.502 208.496 161.055 202.409 167.383 196.865ZM127.891 221.642C127.524 222.001 126.764 222.644 125.616 222.94C125.442 222.985 124.967 223.097 124.388 223.092C122.645 223.083 121.345 222.048 120.883 221.64C116.365 217.875 111.601 213.577 106.742 208.695C102.108 204.043 98.0064 199.485 94.3961 195.153C94.1608 194.917 92.9416 193.653 92.9438 191.648C92.9438 190.379 93.4279 189.111 94.3938 188.145C98.1499 183.64 102.435 178.885 107.305 174.033C111.968 169.387 116.54 165.277 120.883 161.655C121.556 161.077 122.797 160.203 124.388 160.203C126.087 160.203 127.344 161.205 127.893 161.655C133.79 166.489 141.667 174.367 141.667 174.367C141.667 174.367 149.737 182.437 154.381 188.143C154.795 188.651 155.833 189.962 155.833 191.648C155.833 192.916 155.349 194.185 154.381 195.153C150.683 199.496 146.548 204.03 141.943 208.648C137.129 213.48 132.405 217.796 127.891 221.642Z"/>
<path class="l" stroke-width="0" d="M123.529 296.697C107.716 296.697 93.1346 294.027 79.7857 288.687C66.4367 283.142 54.8334 275.646 44.9757 266.199C35.118 256.547 27.4167 245.457 21.8717 232.93C16.5322 220.197 13.8624 206.643 13.8624 192.267C13.8624 176.453 16.5322 161.975 21.8717 148.831C27.4167 135.482 35.118 123.879 44.9757 114.021C54.8334 103.958 66.4367 96.257 79.7857 90.9174C93.1346 85.3724 107.716 82.6 123.529 82.6C139.548 82.6 154.232 85.3724 167.581 90.9174C181.135 96.257 192.841 103.856 202.699 113.713C212.556 123.366 220.155 134.558 225.495 147.291C231.04 160.024 233.812 173.681 233.812 188.262C233.812 203.665 231.04 218.04 225.495 231.389C220.155 244.533 212.556 256.034 202.699 265.891C192.841 275.544 181.135 283.142 167.581 288.687C154.232 294.027 139.548 296.697 123.529 296.697ZM123.529 288.379C139.137 288.379 152.897 284.066 164.808 275.441C176.72 266.61 186.064 254.699 192.841 239.707C199.618 224.51 203.007 207.464 203.007 188.57C203.007 170.703 199.618 154.479 192.841 139.898C186.064 125.111 176.72 113.405 164.808 104.78C152.897 95.9489 139.137 91.5335 123.529 91.5335C108.332 91.5335 94.7776 95.9489 82.8662 104.78C70.9548 113.405 61.6106 125.317 54.8334 140.514C48.0562 155.711 44.6677 172.962 44.6677 192.267C44.6677 205.41 46.6187 217.835 50.5207 229.541C54.4227 241.042 59.8649 251.208 66.8475 260.038C74.0353 268.869 82.4555 275.852 92.1078 280.986C101.76 285.915 112.234 288.379 123.529 288.379Z"/>
</g>
</svg>
